<svg width="102" height="102" viewBox="0 0 102 102" fill="none" xmlns="http://www.w3.org/2000/svg">
<mask id="mask0_1_743" style="mask-type:luminance" maskUnits="userSpaceOnUse" x="0" y="0" width="102" height="102">
<path d="M102 0H0V102H102V0Z" fill="white"/>
</mask>
<g mask="url(#mask0_1_743)">
<path d="M80.0809 0H21.9191C9.81352 0 0 9.81352 0 21.9191V80.0809C0 92.1865 9.81352 102 21.9191 102H80.0809C92.1865 102 102 92.1865 102 80.0809V21.9191C102 9.81352 92.1865 0 80.0809 0Z" fill="#FDBE00"/>
<path d="M20.9156 42.9707C20.1114 42.2428 19.709 41.3617 19.709 40.3273C19.709 38.8332 20.3506 37.4791 21.6342 36.2645C22.9174 35.0502 24.4671 34.4429 26.283 34.4429C27.7771 34.4429 28.9167 34.7781 29.7022 35.4486C30.4874 36.1192 30.8802 37.0673 30.8802 38.2929C30.8802 40.3926 30.0794 41.8484 28.4783 42.6603C29.8342 43.4804 30.5124 44.729 30.5124 46.4072C30.5124 48.3687 29.8075 49.8895 28.3977 50.9698C26.9879 52.0501 25.2793 52.5902 23.2718 52.5902C21.6015 52.5902 20.278 52.2437 19.301 51.5501C18.3242 50.8568 17.8355 49.8971 17.8355 48.6712C17.8355 47.7824 18.0731 46.7767 18.5484 45.6544C19.0231 44.532 19.8123 43.6373 20.9156 42.9707ZM24.5474 44.2349C22.2105 45.1007 21.0422 46.3613 21.0422 48.0162C21.0422 48.5602 21.2968 48.997 21.8064 49.3262C22.3161 49.6559 22.9537 49.8205 23.7199 49.8205C25.0991 49.8205 26.0225 49.491 26.4899 48.8321C26.9572 48.1732 27.1911 47.4723 27.1911 46.729C27.1911 45.6334 26.3097 44.8019 24.5474 44.2349ZM24.8465 41.3617C25.827 41.1318 26.5455 40.837 27.0012 40.4769C27.457 40.1168 27.6851 39.5611 27.6851 38.8103C27.6851 37.7836 27.0532 37.2702 25.7886 37.2702C24.762 37.2702 24.0247 37.5557 23.5763 38.1264C23.1283 38.6973 22.9041 39.27 22.9041 39.8446C22.9041 40.5265 23.5514 41.0322 24.8465 41.3617Z" fill="black"/>
<path d="M38.7883 44.8871C38.5661 45.2396 38.0565 46.1973 37.2596 47.7604C36.1716 49.8904 35.4171 51.2159 34.9957 51.7369C34.5742 52.2579 34.1069 52.5185 33.5935 52.5185C33.287 52.5185 32.9919 52.2903 32.7084 51.8346C32.4249 51.3788 32.2104 50.7026 32.0648 49.8061C31.9192 48.9097 31.8466 46.5651 31.8466 42.7724C31.8466 42.0752 31.8869 41.5275 31.9672 41.1288C32.0478 40.7307 32.2603 40.3916 32.6051 40.1118C32.9499 39.8322 33.3483 39.6923 33.8004 39.6923C34.3827 39.6923 34.7658 39.8725 34.9497 40.2326C35.1336 40.5928 35.1986 41.3436 35.1449 42.4853L35.0762 44.7262V47.0365C36.2329 44.7532 37.187 42.8147 37.9378 41.2208C38.3822 40.2326 39.0488 39.7383 39.9376 39.7383C40.3667 39.7383 40.7018 39.8839 40.9433 40.175C41.1845 40.4662 41.3284 41.0198 41.3744 41.8357C41.4204 42.6518 41.4547 43.5193 41.4777 44.4388L41.5466 47.6914L44.5232 40.5428C44.7913 39.9912 45.297 39.7153 46.0402 39.7153C46.4313 39.7153 46.7701 39.8359 47.0576 40.0774C47.3447 40.3186 47.4886 40.6231 47.4886 40.9909C47.4886 41.2208 47.4004 41.5179 47.2241 41.8817C47.0479 42.2458 46.4369 43.6056 45.3909 45.9618C44.3452 48.3177 43.6097 49.8291 43.1843 50.4957C42.7592 51.1623 42.3568 51.6776 41.9777 52.0414C41.5983 52.4052 41.1329 52.5874 40.5812 52.5874C39.9759 52.5874 39.5086 52.164 39.1791 51.3175C38.8496 50.471 38.7194 48.3274 38.7883 44.8871Z" fill="black"/>
<path d="M50.0287 48.6111C50.6873 49.408 51.6681 49.8064 52.9709 49.8064C53.9823 49.8064 54.8824 49.5956 55.6716 49.1742C56.3765 48.7987 56.9205 48.6111 57.3036 48.6111C57.9778 48.6111 58.315 48.9023 58.315 49.4846C58.315 50.3808 57.7097 51.1223 56.4991 51.7083C55.2885 52.2946 53.963 52.5874 52.5225 52.5874C50.7526 52.5874 49.3678 52.191 48.3677 51.3981C47.368 50.605 46.868 49.5382 46.868 48.1974C46.868 46.3202 47.5363 44.4964 48.8734 42.7268C50.2106 40.9566 51.9822 40.0717 54.1888 40.0717C55.6372 40.0717 56.7652 40.3113 57.5737 40.79C58.3819 41.269 58.786 41.9489 58.786 42.8301C58.786 43.6652 58.4662 44.3684 57.8266 44.9391C57.1867 45.5098 55.9664 46.1593 54.1661 46.8869L50.0287 48.6111ZM50.2353 45.6916L53.0169 44.5883C54.0282 44.1519 54.9207 43.7112 55.6946 43.2668C55.2425 42.9833 54.6026 42.8414 53.7751 42.8414C52.3576 42.8414 51.178 43.7918 50.2353 45.6916Z" fill="black"/>
<path d="M62.3155 48.6111C62.9742 49.408 63.9549 49.8064 65.2577 49.8064C66.2691 49.8064 67.1692 49.5956 67.9584 49.1742C68.6633 48.7987 69.2073 48.6111 69.5904 48.6111C70.2647 48.6111 70.6018 48.9023 70.6018 49.4846C70.6018 50.3808 69.9965 51.1223 68.7859 51.7083C67.5753 52.2946 66.2498 52.5874 64.8093 52.5874C63.0394 52.5874 61.6546 52.191 60.6546 51.3981C59.6548 50.605 59.1548 49.5382 59.1548 48.1974C59.1548 46.3202 59.8231 44.4964 61.1603 42.7268C62.4974 40.9566 64.269 40.0717 66.4757 40.0717C67.9241 40.0717 69.0521 40.3113 69.8606 40.79C70.6688 41.269 71.0729 41.9489 71.0729 42.8301C71.0729 43.6652 70.753 44.3684 70.1134 44.9391C69.4735 45.5098 68.2532 46.1593 66.453 46.8869L62.3155 48.6111ZM62.5221 45.6916L65.3037 44.5883C66.3151 44.1519 67.2075 43.7112 67.9814 43.2668C67.5293 42.9833 66.8894 42.8414 66.0619 42.8414C64.6445 42.8414 63.4648 43.7918 62.5221 45.6916Z" fill="black"/>
<path d="M77.0388 46.9641C76.1728 47.5237 75.6137 47.8685 75.3606 47.9988C75.1001 49.2323 74.8972 50.2551 74.7516 51.0672C74.675 51.504 74.4661 51.868 74.1253 52.1589C73.7842 52.4501 73.3878 52.5959 72.9357 52.5959C72.0239 52.5959 71.5682 52.1476 71.5682 51.2511C71.5682 50.891 71.7671 49.7917 72.1658 47.9528C72.4567 46.6732 72.6446 45.7652 72.7288 45.2288L74.0734 37.6205C74.1117 37.337 74.15 36.9502 74.1886 36.4598C74.2496 35.6783 74.3245 35.1553 74.4125 34.8908C74.5005 34.6266 74.7056 34.3718 75.0274 34.1266C75.3492 33.8815 75.7284 33.7589 76.1654 33.7589C76.5635 33.7589 76.8873 33.8778 77.1365 34.1153C77.3853 34.3528 77.5099 34.663 77.5099 35.0461L77.3606 36.4942C77.2531 37.6205 77.0119 39.0956 76.6364 40.9191C76.4296 41.9152 76.2417 42.9839 76.0734 44.1255C77.2761 43.298 79.0959 41.8385 81.5324 39.7465C81.9232 39.402 82.3293 39.2295 82.7507 39.2295C83.1415 39.2295 83.4749 39.3617 83.7507 39.6259C84.0265 39.8904 84.1645 40.1989 84.1645 40.5513C84.1645 40.8425 84.0895 41.1107 83.9403 41.3556C83.7907 41.601 83.243 42.1297 82.2966 42.9419C81.3503 43.754 80.5134 44.4357 79.7855 44.9873L81.6933 48.0791C82.5362 49.4429 82.9576 50.4199 82.9576 51.0096C82.9576 51.4234 82.7584 51.8028 82.3599 52.1476C81.9615 52.4924 81.5208 52.6646 81.0384 52.6646C80.4328 52.6646 80.023 52.3735 79.8085 51.7911C79.4867 50.9333 78.7012 49.5425 77.4526 47.6193C77.1995 47.2362 77.0615 47.018 77.0388 46.9641Z" fill="black"/>
<path d="M21.9832 52.9108C36.9413 63.741 52.8986 65.9402 69.9232 59.0219C66.945 63.7787 54.6988 68.7184 46.8358 68.2042C35.806 67.4828 27.878 61.7768 21.9832 52.9108Z" fill="white"/>
<path d="M73.6212 62.3968C72.5384 59.2483 70.6353 56.7749 67.9121 54.9765C69.6491 53.4629 72.5111 53.7794 74.1478 55.666C75.8875 57.6713 75.7004 60.5056 73.6212 62.3968Z" fill="white"/>
</g>
</svg>
